# xmcd
#
# Track frame offsets:
#	150
#	15804
#	30572
#	42613
#	55947
#	71617
#	87220
#	101134
#	111130
#	123814
#	139656
#	151701
#	164520
#	177004
#	191428
#	204357
#	219648
#	233290
#	253215
#	265689
#
# Disc length: 3733 seconds
#
# Revision: 2
# Processed by: cddbd v1.5.2PL0 Copyright (c) Steve Scherf et al.
# Submitted via: EasyCDDAExtractor 10.2.0.1
#
DISCID=030e9314
DTITLE=Daniel O' Donnell - Heartbreakers
DYEAR=2002
DGENRE=Country
TTITLE0=Don't Forget To Rember
TTITLE1=Old Loves Never Die
TTITLE2=I Wonder Where You Are Tonight
TTITLE3=Before I'm Over You
TTITLE4=Take Good Care Of Her
TTITLE5=Don't Let Me Cross Over
TTITLE6=Crying My Heart Out Over You
TTITLE7=Excuse Me (I Think I've Got A Heartache)
TTITLE8=That's A Sad Affair
TTITLE9=Your Old Love Letters
TTITLE10=You Know I Still Love You
TTITLE11=A Fool Such As I
TTITLE12=Singing The Blues
TTITLE13=Leaving Is Easy (When Loving Is Hard)
TTITLE14=She Goes Walking Through My Mind
TTITLE15=Broken Hearts Always Mend
TTITLE16=Whatever Happened To Old Fashioned Love
TTITLE17=Sweet Forget Me Not
TTITLE18=It Comes And Goes
TTITLE19=Someday You'll Want Me To Want You
EXTD=
EXTT0=
EXTT1=
EXTT2=
EXTT3=
EXTT4=
EXTT5=
EXTT6=
EXTT7=
EXTT8=
EXTT9=
EXTT10=
EXTT11=
EXTT12=
EXTT13=
EXTT14=
EXTT15=
EXTT16=
EXTT17=
EXTT18=
EXTT19=
PLAYORDER=
